<svg width="373" height="373" viewBox="0 0 373 373" fill="none" xmlns="http://www.w3.org/2000/svg">
<mask id="mask0_2318_145" style="mask-type:alpha" maskUnits="userSpaceOnUse" x="0" y="0" width="373" height="373">
<path d="M319.899 25.9028C284.931 3.54489 233.125 0 186.5 0C139.875 0 88.0694 3.54489 53.1007 25.9028C41.9163 33.0537 33.0537 41.9163 25.9028 53.1007C3.54489 88.0694 0 139.875 0 186.5C0 233.125 3.54489 284.931 25.9028 319.899C33.0537 331.084 41.9163 339.946 53.1007 347.097C88.0694 369.455 139.875 373 186.5 373C233.125 373 284.931 369.455 319.899 347.097C331.084 339.946 339.946 331.084 347.097 319.899C369.455 284.931 373 233.125 373 186.5C373 139.875 369.455 88.0694 347.097 53.1007C339.946 41.9163 331.084 33.0537 319.899 25.9028Z" fill="#FF9800"/>
</mask>
<g mask="url(#mask0_2318_145)">
<rect x="-30" y="-30" width="432" height="432" fill="#6EF2A3"/>
<path d="M104 239.94C104 237.196 106.225 234.971 108.97 234.971H118.814C121.559 234.971 123.784 237.196 123.784 239.94V250.011C123.784 252.756 121.559 254.981 118.814 254.981H108.97C106.225 254.981 104 252.756 104 250.011V239.94Z" fill="#104927"/>
<path d="M124.773 275.959C124.773 273.214 126.998 270.989 129.743 270.989H242.461C245.206 270.989 247.431 273.214 247.431 275.959V287.031C247.431 289.775 245.206 292 242.461 292H129.743C126.998 292 124.773 289.775 124.773 287.031V275.959Z" fill="#104927"/>
<path d="M145.569 234.971C142.825 234.971 140.6 237.196 140.6 239.94V250.011C140.6 252.756 142.825 254.981 145.569 254.981H155.413C158.158 254.981 160.383 252.756 160.383 250.011V239.94C160.383 237.196 158.158 234.971 155.413 234.971H145.569Z" fill="#104927"/>
<path d="M211.82 239.94C211.82 237.196 214.045 234.971 216.79 234.971H226.634C229.379 234.971 231.604 237.196 231.604 239.94V250.011C231.604 252.756 229.379 254.981 226.634 254.981H216.79C214.045 254.981 211.82 252.756 211.82 250.011V239.94Z" fill="#104927"/>
<path d="M253.39 234.971C250.645 234.971 248.42 237.196 248.42 239.94V250.011C248.42 252.756 250.645 254.981 253.39 254.981H263.234C265.979 254.981 268.204 252.756 268.204 250.011V239.94C268.204 237.196 265.979 234.971 263.234 234.971H253.39Z" fill="#104927"/>
<path d="M104 205.242C104 202.498 106.225 200.273 108.97 200.273H118.814C121.559 200.273 123.784 202.498 123.784 205.242V215.313C123.784 218.058 121.559 220.283 118.814 220.283H108.97C106.225 220.283 104 218.058 104 215.313V205.242Z" fill="#104927"/>
<path d="M253.39 200.273C250.645 200.273 248.42 202.498 248.42 205.242V215.313C248.42 218.058 250.645 220.283 253.39 220.283H263.234C265.979 220.283 268.204 218.058 268.204 215.313V205.242C268.204 202.498 265.979 200.273 263.234 200.273H253.39Z" fill="#104927"/>
<path fill-rule="evenodd" clip-rule="evenodd" d="M244.075 195.549C249.963 190.626 253.366 183.346 253.366 175.671V82H155.707C135.344 82 118.836 98.5078 118.836 118.871V175.786C118.836 183.395 122.181 190.619 127.983 195.542L181.123 240.631C183.711 242.828 187.505 242.842 190.11 240.664L244.075 195.549ZM138.766 164.711V178.554H185.698L233.435 178.466V164.711H138.766ZM233.435 144.781V101.93H224.467V125.847C224.467 131.35 220.005 135.812 214.502 135.812C208.998 135.812 204.536 131.35 204.536 125.847V101.93H195.568V108.906C195.568 114.41 191.106 118.871 185.603 118.871C180.099 118.871 175.637 114.41 175.637 108.906V101.93H155.707C146.351 101.93 138.766 109.515 138.766 118.871V144.781H233.435Z" fill="white"/>
</g>
</svg>
